# xmcd
#
# Track frame offsets:
#	150
#	7308
#	14572
#	23545
#	34056
#	45747
#	50058
#	62818
#	72800
#	83492
#	89851
#	97107
#	105177
#	113812
#	123101
#	130947
#
# Disc length: 1907 seconds
#
# Revision: 10
# Processed by: cddbd v1.5.2PL0 Copyright (c) Steve Scherf et al.
# Submitted via: Jack! The Knife 20 Magnifico
#
DISCID=d3077110
DTITLE=La Polla Records - Donde Se Habla
DYEAR=1988
DGENRE=Punk
TTITLE0=Los Monos
TTITLE1=Canarios Y Jilgeros
TTITLE2=Ocho Mariposas
TTITLE3=Animal Sin Nombre
TTITLE4=Conejas Y Gallinas
TTITLE5=Rata (Parte 1)
TTITLE6=Rata (Parte 2)
TTITLE7=El Perro Salvaje
TTITLE8=El Avestruz
TTITLE9=Confusión
TTITLE10=El Cerdo
TTITLE11=Escorpión
TTITLE12=El Pingüino
TTITLE13=Ciervos, Corzos Y Gacelas
TTITLE14=Las Hormigas
TTITLE15=Todos Los Animales Privando Juntos En El Bar
EXTD=Mariño Goñi
EXTT0=
EXTT1=
EXTT2=
EXTT3=
EXTT4=
EXTT5=
EXTT6=
EXTT7=
EXTT8=
EXTT9=
EXTT10=
EXTT11=
EXTT12=
EXTT13=
EXTT14=
EXTT15=
PLAYORDER=
